<?xml version="1.0" encoding="UTF-8" standalone="no"?>
<svg
   xmlns:dc="http://purl.org/dc/elements/1.1/"
   xmlns:cc="http://creativecommons.org/ns#"
   xmlns:rdf="http://www.w3.org/1999/02/22-rdf-syntax-ns#"
   xmlns:svg="http://www.w3.org/2000/svg"
   xmlns="http://www.w3.org/2000/svg"
   xmlns:sodipodi="http://sodipodi.sourceforge.net/DTD/sodipodi-0.dtd"
   xmlns:inkscape="http://www.inkscape.org/namespaces/inkscape"
   width="691.70428mm"
   height="242.11784mm"
   viewBox="0 0 691.70428 242.11784"
   version="1.1"
   id="svg8"
   inkscape:version="1.0.1 (3bc2e813f5, 2020-09-07)"
   sodipodi:docname="directed-acyclic-graph.svg"
   inkscape:export-filename="/home/chiroptical/presentations/pytorch-introduction/answers/directed-acyclic-graph.png"
   inkscape:export-xdpi="50"
   inkscape:export-ydpi="50">
  <defs
     id="defs2" />
  <sodipodi:namedview
     id="base"
     pagecolor="#ffffff"
     bordercolor="#666666"
     borderopacity="1.0"
     inkscape:pageopacity="0.0"
     inkscape:pageshadow="2"
     inkscape:zoom="0.24748737"
     inkscape:cx="1220.7743"
     inkscape:cy="-286.54924"
     inkscape:document-units="mm"
     inkscape:current-layer="layer1"
     showgrid="false"
     fit-margin-top="10"
     fit-margin-left="10"
     fit-margin-right="10"
     fit-margin-bottom="10"
     inkscape:window-width="1920"
     inkscape:window-height="1029"
     inkscape:window-x="0"
     inkscape:window-y="1107"
     inkscape:window-maximized="1"
     inkscape:document-rotation="0" />
  <metadata
     id="metadata5">
    <rdf:RDF>
      <cc:Work
         rdf:about="">
        <dc:format>image/svg+xml</dc:format>
        <dc:type
           rdf:resource="http://purl.org/dc/dcmitype/StillImage" />
        <dc:title></dc:title>
      </cc:Work>
    </rdf:RDF>
  </metadata>
  <g
     inkscape:label="Layer 1"
     inkscape:groupmode="layer"
     id="layer1"
     transform="translate(-11.645942,-380.94026)">
    <flowRoot
       xml:space="preserve"
       id="flowRoot1254"
       style="font-style:normal;font-variant:normal;font-weight:normal;font-stretch:normal;font-size:53.3333px;line-height:1.25;font-family:STIX;-inkscape-font-specification:STIX;letter-spacing:0px;word-spacing:0px;fill:#000000;fill-opacity:1;stroke:none"
       transform="matrix(0.26458333,0,0,0.26458333,0,97)"><flowRegion
         id="flowRegion1256"><rect
           id="rect1258"
           width="340"
           height="300"
           x="708.57141"
           y="267.33408" /></flowRegion><flowPara
         id="flowPara1260" /></flowRoot>
    <flowRoot
       xml:space="preserve"
       id="flowRoot959-5"
       style="font-style:normal;font-variant:normal;font-weight:normal;font-stretch:normal;font-size:53.3333px;line-height:1.25;font-family:STIX;-inkscape-font-specification:STIX;letter-spacing:0px;word-spacing:0px;fill:#000000;fill-opacity:1;stroke:none"
       transform="matrix(0.94723563,0,0,0.94723563,132.67629,243.65718)"><flowRegion
         id="flowRegion961-8"><rect
           id="rect963-6"
           width="91.428574"
           height="162.85715"
           x="11.428572"
           y="139.66254" /></flowRegion><flowPara
         id="flowPara965-2">w</flowPara></flowRoot>
    <g
       id="g1109"
       transform="matrix(0.14090839,0.0813535,-0.0813535,0.14090839,151.803,406.55556)">
      <g
         id="g1052">
        <g
           id="g1050"
           transform="rotate(-30,-40.980245,371.08636)">
          <path
             id="path1048"
             d="m 506.134,241.843 c -0.006,-0.006 -0.011,-0.013 -0.018,-0.019 l -104.504,-104 c -7.829,-7.791 -20.492,-7.762 -28.285,0.068 -7.792,7.829 -7.762,20.492 0.067,28.284 L 443.558,236 H 20 c -11.046,0 -20,8.954 -20,20 0,11.046 8.954,20 20,20 h 423.557 l -70.162,69.824 c -7.829,7.792 -7.859,20.455 -0.067,28.284 7.793,7.831 20.457,7.858 28.285,0.068 l 104.504,-104 c 0.006,-0.006 0.011,-0.013 0.018,-0.019 7.833,-7.818 7.808,-20.522 -10e-4,-28.314 z"
             inkscape:connector-curvature="0" />
        </g>
      </g>
      <g
         id="g1054" />
      <g
         id="g1056" />
      <g
         id="g1058" />
      <g
         id="g1060" />
      <g
         id="g1062" />
      <g
         id="g1064" />
      <g
         id="g1066" />
      <g
         id="g1068" />
      <g
         id="g1070" />
      <g
         id="g1072" />
      <g
         id="g1074" />
      <g
         id="g1076" />
      <g
         id="g1078" />
      <g
         id="g1080" />
      <g
         id="g1082" />
    </g>
    <g
       transform="translate(69.701046,315.11802)"
       id="g1546">
      <circle
         style="fill:none;fill-opacity:0.866667;stroke:#000000;stroke-width:4.74298;stroke-miterlimit:4;stroke-dasharray:none;stroke-dashoffset:0;stroke-opacity:1"
         id="path1252-2"
         cx="392.33929"
         cy="187.76488"
         r="43.473747" />
      <flowRoot
         xml:space="preserve"
         id="flowRoot959-3-8"
         style="font-style:normal;font-variant:normal;font-weight:normal;font-stretch:normal;font-size:53.3333px;line-height:1.25;font-family:STIX;-inkscape-font-specification:STIX;letter-spacing:0px;word-spacing:0px;fill:#000000;fill-opacity:1;stroke:none"
         transform="matrix(1.556002,0,0,1.556002,348.4908,-75.450399)"><flowRegion
           id="flowRegion961-9-2"><rect
             id="rect963-1-9"
             width="91.428574"
             height="162.85715"
             x="11.428572"
             y="139.66254" /></flowRegion><flowPara
           id="flowPara965-9-9">L</flowPara></flowRoot>
    </g>
    <g
       transform="translate(53.320191,249.77657)"
       id="g1805">
      <flowRoot
         xml:space="preserve"
         id="flowRoot959-3"
         style="font-style:normal;font-variant:normal;font-weight:normal;font-stretch:normal;font-size:53.3333px;line-height:1.25;font-family:STIX;-inkscape-font-specification:STIX;letter-spacing:0px;word-spacing:0px;fill:#000000;fill-opacity:1;stroke:none"
         transform="matrix(1.556002,0,0,1.556002,173.00551,-74.579043)"><flowRegion
           id="flowRegion961-9"><rect
             id="rect963-1"
             width="91.428574"
             height="162.85715"
             x="11.428572"
             y="139.66254" /></flowRegion><flowPara
           id="flowPara965-9">f</flowPara></flowRoot>
      <circle
         style="fill:none;fill-opacity:0.866667;stroke:#000000;stroke-width:4.74298;stroke-miterlimit:4;stroke-dasharray:none;stroke-dashoffset:0;stroke-opacity:1"
         id="path1252-2-0"
         cx="207.50893"
         cy="187.00893"
         r="43.473747" />
    </g>
    <g
       id="g1173"
       transform="translate(-97.852327,-70.483421)">
      <flowRoot
         xml:space="preserve"
         id="flowRoot959"
         style="font-style:normal;font-variant:normal;font-weight:normal;font-stretch:normal;font-size:53.3333px;line-height:1.25;font-family:STIX;-inkscape-font-specification:STIX;letter-spacing:0px;word-spacing:0px;fill:#000000;fill-opacity:1;stroke:none"
         transform="matrix(1.556002,0,0,1.556002,123.16837,239.22228)"><flowRegion
           id="flowRegion961"><rect
             id="rect963"
             width="91.428574"
             height="162.85715"
             x="11.428572"
             y="139.66254" /></flowRegion><flowPara
           id="flowPara965">x</flowPara></flowRoot>
      <circle
         style="fill:none;fill-opacity:0.866667;stroke:#000000;stroke-width:4.74298;stroke-miterlimit:4;stroke-dasharray:none;stroke-dashoffset:0;stroke-opacity:1"
         id="path1252-2-0-5"
         cx="165.34351"
         cy="507.26892"
         r="43.473747" />
    </g>
    <g
       id="g1755"
       transform="translate(0,28.045845)">
      <g
         transform="matrix(0.1409084,0.0813535,-0.0813535,0.1409084,342.25201,379.88645)"
         id="g1109-0-5">
        <g
           id="g1052-48-1">
          <g
             id="g1050-0-7">
            <path
               inkscape:connector-curvature="0"
               d="m 506.134,241.843 c -0.006,-0.006 -0.011,-0.013 -0.018,-0.019 l -104.504,-104 c -7.829,-7.791 -20.492,-7.762 -28.285,0.068 -7.792,7.829 -7.762,20.492 0.067,28.284 L 443.558,236 H 20 c -11.046,0 -20,8.954 -20,20 0,11.046 8.954,20 20,20 h 423.557 l -70.162,69.824 c -7.829,7.792 -7.859,20.455 -0.067,28.284 7.793,7.831 20.457,7.858 28.285,0.068 l 104.504,-104 c 0.006,-0.006 0.011,-0.013 0.018,-0.019 7.833,-7.818 7.808,-20.522 -10e-4,-28.314 z"
               id="path1048-4-4" />
          </g>
        </g>
        <g
           id="g1054-2-3" />
        <g
           id="g1056-9-1" />
        <g
           id="g1058-61-4" />
        <g
           id="g1060-0-6" />
        <g
           id="g1062-4-9" />
        <g
           id="g1064-2-4" />
        <g
           id="g1066-2-2" />
        <g
           id="g1068-2-2" />
        <g
           id="g1070-0-6" />
        <g
           id="g1072-5-4" />
        <g
           id="g1074-5-1" />
        <g
           id="g1076-2-2" />
        <g
           id="g1078-9-8" />
        <g
           id="g1080-0-8" />
        <g
           id="g1082-2-9" />
      </g>
      <g
         transform="matrix(0.15716289,0.04211167,-0.04211167,0.15716289,312.71651,485.16339)"
         id="g1109-0-5-6">
        <g
           id="g1052-48-1-2"
           transform="rotate(-45,86.651026,109.55683)"
           inkscape:transform-center-x="6.8808853"
           inkscape:transform-center-y="21.282772">
          <g
             id="g1050-0-7-9">
            <path
               inkscape:connector-curvature="0"
               d="m 506.134,241.843 c -0.006,-0.006 -0.011,-0.013 -0.018,-0.019 l -104.504,-104 c -7.829,-7.791 -20.492,-7.762 -28.285,0.068 -7.792,7.829 -7.762,20.492 0.067,28.284 L 443.558,236 H 20 c -11.046,0 -20,8.954 -20,20 0,11.046 8.954,20 20,20 h 423.557 l -70.162,69.824 c -7.829,7.792 -7.859,20.455 -0.067,28.284 7.793,7.831 20.457,7.858 28.285,0.068 l 104.504,-104 c 0.006,-0.006 0.011,-0.013 0.018,-0.019 7.833,-7.818 7.808,-20.522 -10e-4,-28.314 z"
               id="path1048-4-4-1" />
          </g>
        </g>
        <g
           id="g1054-2-3-2" />
        <g
           id="g1056-9-1-7" />
        <g
           id="g1058-61-4-0" />
        <g
           id="g1060-0-6-9" />
        <g
           id="g1062-4-9-3" />
        <g
           id="g1064-2-4-6" />
        <g
           id="g1066-2-2-0" />
        <g
           id="g1068-2-2-6" />
        <g
           id="g1070-0-6-2" />
        <g
           id="g1072-5-4-6" />
        <g
           id="g1074-5-1-1" />
        <g
           id="g1076-2-2-8" />
        <g
           id="g1078-9-8-7" />
        <g
           id="g1080-0-8-9" />
        <g
           id="g1082-2-9-2" />
      </g>
    </g>
    <g
       transform="matrix(0.162707,0,0,0.162707,509.18301,461.22991)"
       id="g1109-0-5-0">
      <g
         id="g1052-48-1-23">
        <g
           id="g1050-0-7-7">
          <path
             inkscape:connector-curvature="0"
             d="m 506.134,241.843 c -0.006,-0.006 -0.011,-0.013 -0.018,-0.019 l -104.504,-104 c -7.829,-7.791 -20.492,-7.762 -28.285,0.068 -7.792,7.829 -7.762,20.492 0.067,28.284 L 443.558,236 H 20 c -11.046,0 -20,8.954 -20,20 0,11.046 8.954,20 20,20 h 423.557 l -70.162,69.824 c -7.829,7.792 -7.859,20.455 -0.067,28.284 7.793,7.831 20.457,7.858 28.285,0.068 l 104.504,-104 c 0.006,-0.006 0.011,-0.013 0.018,-0.019 7.833,-7.818 7.808,-20.522 -10e-4,-28.314 z"
             id="path1048-4-4-5" />
        </g>
      </g>
      <g
         id="g1054-2-3-9" />
      <g
         id="g1056-9-1-2" />
      <g
         id="g1058-61-4-2" />
      <g
         id="g1060-0-6-8" />
      <g
         id="g1062-4-9-9" />
      <g
         id="g1064-2-4-7" />
      <g
         id="g1066-2-2-3" />
      <g
         id="g1068-2-2-61" />
      <g
         id="g1070-0-6-29" />
      <g
         id="g1072-5-4-3" />
      <g
         id="g1074-5-1-19" />
      <g
         id="g1076-2-2-4" />
      <g
         id="g1078-9-8-78" />
      <g
         id="g1080-0-8-4" />
      <g
         id="g1082-2-9-5" />
    </g>
    <g
       id="g1378"
       transform="translate(-7.0369665,55.844541)">
      <flowRoot
         transform="matrix(1.556002,0,0,1.556002,611.35377,178.95121)"
         style="font-style:normal;font-variant:normal;font-weight:normal;font-stretch:normal;font-size:53.3333px;line-height:1.25;font-family:STIX;-inkscape-font-specification:STIX;letter-spacing:0px;word-spacing:0px;fill:#000000;fill-opacity:1;stroke:none"
         id="flowRoot959-3-5-6"
         xml:space="preserve"><flowRegion
           id="flowRegion961-9-0-8"><rect
             y="139.66254"
             x="11.428572"
             height="162.85715"
             width="91.428574"
             id="rect963-1-2-7" /></flowRegion><flowPara
           id="flowPara965-9-94-9">o</flowPara></flowRoot>
      <circle
         style="fill:none;fill-opacity:0.866667;stroke:#000000;stroke-width:4.74298;stroke-miterlimit:4;stroke-dasharray:none;stroke-dashoffset:0;stroke-opacity:1"
         id="path1252-2-0-5-3"
         cx="654.54193"
         cy="447.03836"
         r="43.473747" />
    </g>
    <g
       id="g1493"
       transform="translate(141.93288,-29.262229)">
      <flowRoot
         transform="matrix(1.556002,0,0,1.556002,76.559024,319.79754)"
         style="font-style:normal;font-variant:normal;font-weight:normal;font-stretch:normal;font-size:53.3333px;line-height:1.25;font-family:STIX;-inkscape-font-specification:STIX;letter-spacing:0px;word-spacing:0px;fill:#000000;fill-opacity:1;stroke:none"
         id="flowRoot959-3-5"
         xml:space="preserve"><flowRegion
           id="flowRegion961-9-0"><rect
             y="139.66254"
             x="11.428572"
             height="162.85715"
             width="91.428574"
             id="rect963-1-2" /></flowRegion><flowPara
           id="flowPara965-9-94">y</flowPara></flowRoot>
      <circle
         style="fill:none;fill-opacity:0.866667;stroke:#000000;stroke-width:4.74298;stroke-miterlimit:4;stroke-dasharray:none;stroke-dashoffset:0;stroke-opacity:1"
         id="path1252-2-0-5-4"
         cx="118.89624"
         cy="596.4751"
         r="43.473747" />
    </g>
  </g>
</svg>
